{"glyphs":{":":{"x_min":0,"x_max":206,"ha":206,"o":"m 103 317 q 81 317 66 333 q 51 349 51 370 q 51 391 66 406 q 81 422 103 422 q 124 422 140 406 q 155 391 155 370 q 155 349 140 333 q 124 317 103 317 z m 103 -6 q 81 -6 66 10 q 51 26 51 46 q 51 68 66 84 q 81 99 103 99 q 124 99 140 84 q 155 68 155 46 q 155 26 140 10 q 124 -6 103 -6 z"},"$":{"x_min":0,"x_max":507,"ha":507,"o":"m 266 -52 q 255 -52 248 -46 q 240 -39 240 -31 l 240 2 q 177 3 132 22 q 86 42 61 68 q 36 94 36 115 q 36 125 42 136 q 47 146 56 154 q 64 161 73 161 q 84 161 96 150 q 107 138 124 123 q 141 108 169 96 q 197 83 240 81 l 240 347 q 206 358 174 372 q 141 386 114 406 q 86 427 70 459 q 54 491 54 539 q 54 586 70 618 q 86 651 113 672 q 140 692 173 703 q 206 714 240 717 l 240 747 q 240 756 248 762 q 255 768 266 768 q 275 768 284 762 q 292 756 292 747 l 292 719 q 318 718 346 713 q 373 708 396 700 q 420 692 434 680 q 449 668 449 653 q 449 645 445 634 q 441 624 433 616 q 425 607 413 607 q 403 607 388 616 q 374 624 351 633 q 328 642 292 644 l 292 416 q 323 405 354 390 q 386 374 412 351 q 437 328 452 292 q 467 257 467 206 q 467 115 418 66 q 369 16 292 5 l 292 -31 q 292 -39 284 -46 q 275 -52 266 -52 z m 288 83 q 335 91 361 120 q 387 148 387 198 q 387 236 374 260 q 360 285 338 301 q 315 317 288 328 z m 244 433 l 244 643 q 214 640 189 630 q 164 619 149 599 q 134 579 134 547 q 134 513 149 492 q 164 470 189 457 q 214 444 244 433 z"},"?":{"x_min":0,"x_max":411,"ha":411,"o":"m 177 175 q 161 175 153 183 q 145 191 145 212 q 145 265 152 298 q 158 330 170 349 q 181 368 193 381 q 208 397 228 414 q 247 430 266 450 q 284 471 296 498 q 308 524 308 559 q 308 613 275 644 q 242 675 182 675 q 148 675 128 666 q 107 658 96 647 q 85 636 76 628 q 67 620 55 620 q 45 620 34 628 q 23 637 23 653 q 23 671 44 692 q 64 712 100 726 q 137 741 185 741 q 248 741 291 718 q 334 695 356 655 q 379 615 379 566 q 379 521 364 488 q 349 454 328 428 q 306 401 284 382 q 263 363 250 348 q 231 330 223 310 q 215 289 213 263 q 211 237 211 202 q 211 191 204 183 q 196 175 177 175 z m 178 -6 q 155 -6 140 10 q 126 26 126 46 q 126 68 141 84 q 156 99 178 99 q 199 99 214 84 q 229 68 229 46 q 229 26 214 10 q 199 -6 178 -6 z"},"<":{"x_min":0,"x_max":408,"ha":408,"o":"m 324 65 q 316 65 311 69 l 44 244 q 35 249 30 258 q 26 268 26 277 q 26 286 30 296 q 35 305 44 311 l 311 486 q 316 490 324 490 q 337 490 350 479 q 362 468 362 450 q 362 433 350 426 l 124 277 l 350 129 q 362 121 362 104 q 362 88 350 76 q 337 65 324 65 z"},"'":{"x_min":0,"x_max":143,"ha":143,"o":"m 71 572 q 57 572 51 580 q 45 588 45 598 l 35 743 q 35 755 46 762 q 58 768 71 768 q 84 768 96 762 q 108 755 108 743 l 98 598 q 98 588 92 580 q 85 572 71 572 z"},"=":{"x_min":0,"x_max":438,"ha":438,"o":"m 92 327 q 79 327 71 337 q 63 347 63 363 q 63 378 71 388 q 79 399 92 399 l 346 399 q 357 399 366 388 q 376 378 376 363 q 376 347 366 337 q 357 327 346 327 z m 92 124 q 79 124 71 134 q 63 144 63 160 q 63 175 71 186 q 79 196 92 196 l 346 196 q 357 196 366 186 q 376 175 376 160 q 376 144 366 134 q 357 124 346 124 z"},"a":{"x_min":0,"x_max":447,"ha":447,"o":"m 163 -8 q 107 -8 68 24 q 28 57 28 125 q 28 180 58 210 q 88 241 140 252 q 193 264 262 264 l 310 264 l 310 285 q 310 315 299 344 q 288 372 264 390 q 241 409 200 409 q 165 409 144 402 q 124 395 112 388 q 100 380 91 380 q 76 380 68 394 q 60 409 60 422 q 60 438 82 451 q 104 464 137 472 q 170 480 202 480 q 272 480 314 452 q 356 424 374 380 q 393 336 393 286 l 393 30 q 393 18 382 9 q 370 0 352 0 q 336 0 325 9 q 314 18 314 30 l 314 70 q 288 40 251 16 q 214 -8 163 -8 z m 189 59 q 218 59 246 75 q 273 91 292 115 q 310 139 310 161 l 310 213 l 275 213 q 233 213 196 208 q 158 203 135 186 q 112 170 112 134 q 112 95 134 77 q 156 59 189 59 z"},"L":{"x_min":0,"x_max":468,"ha":468,"o":"m 109 0 q 95 0 83 8 q 71 15 71 30 l 71 702 q 71 717 84 724 q 98 731 113 731 q 129 731 142 724 q 155 717 155 702 l 155 76 l 429 76 q 443 76 450 64 q 456 53 456 38 q 456 24 450 12 q 443 0 429 0 z"},"3":{"x_min":0,"x_max":497,"ha":497,"o":"m 240 -6 q 185 -6 144 10 q 104 25 78 50 q 51 75 38 105 q 26 135 26 164 q 26 188 36 196 q 45 203 65 203 q 91 203 100 194 q 109 186 109 170 q 109 154 116 136 q 123 119 138 104 q 153 89 178 80 q 203 70 239 70 q 306 70 340 103 q 373 136 373 208 l 373 227 q 373 292 336 320 q 300 349 240 349 q 224 349 218 360 q 211 371 211 384 q 211 397 218 408 q 224 419 239 419 q 275 419 301 429 q 327 439 341 466 q 355 492 355 539 q 355 600 328 628 q 300 656 243 656 q 209 656 186 647 q 163 638 150 624 q 136 609 131 593 q 126 577 126 560 q 126 544 118 534 q 109 523 86 523 q 68 523 59 527 q 50 531 46 540 q 43 550 43 566 q 43 589 52 617 q 61 645 84 671 q 106 697 146 714 q 185 731 245 731 q 301 731 344 714 q 387 697 412 658 q 436 620 436 554 q 436 488 414 446 q 391 403 355 386 q 399 368 428 330 q 457 292 457 227 l 457 208 q 457 130 428 84 q 399 37 350 16 q 300 -6 240 -6 z"},";":{"x_min":0,"x_max":207,"ha":207,"o":"m 89 -89 q 79 -89 69 -82 q 59 -76 59 -65 q 59 -59 61 -54 l 82 -2 q 68 4 59 17 q 50 30 50 46 q 50 68 65 84 q 80 99 101 99 q 122 99 138 84 q 154 70 154 46 q 154 43 153 38 q 152 32 148 20 q 143 8 134 -14 q 126 -37 110 -75 q 107 -82 101 -86 q 95 -89 89 -89 z m 105 317 q 82 317 68 333 q 53 349 53 370 q 53 391 68 406 q 82 422 105 422 q 126 422 142 406 q 157 391 157 370 q 157 349 142 333 q 126 317 105 317 z"},"J":{"x_min":0,"x_max":517,"ha":517,"o":"m 236 -6 q 171 -6 122 17 q 73 40 46 82 q 18 123 18 177 q 18 201 29 210 q 40 218 60 218 q 76 218 88 212 q 101 205 102 189 q 103 155 118 128 q 133 100 162 85 q 191 70 233 70 q 296 70 330 104 q 365 139 365 212 l 365 655 l 235 655 q 221 655 214 667 q 206 679 206 694 q 206 707 212 719 q 219 731 235 731 l 411 731 q 426 731 438 724 q 449 716 449 701 l 449 212 q 449 133 420 85 q 392 37 344 16 q 295 -6 236 -6 z"},"V":{"x_min":0,"x_max":547,"ha":547,"o":"m 274 -6 q 257 -6 242 2 q 227 9 222 23 l 17 688 q 16 692 16 696 q 16 706 24 714 q 32 722 44 726 q 56 731 67 731 q 78 731 86 726 q 95 722 98 712 l 274 118 l 449 712 q 452 722 460 726 q 468 731 479 731 q 491 731 503 726 q 515 721 523 714 q 531 706 531 695 q 531 694 530 692 q 530 690 530 688 l 326 23 q 322 9 307 2 q 292 -6 274 -6 z"},"\"":{"x_min":0,"x_max":279,"ha":279,"o":"m 207 572 q 193 572 187 580 q 181 588 181 598 l 171 743 q 171 755 182 762 q 194 768 207 768 q 220 768 232 762 q 244 755 244 743 l 234 598 q 234 588 228 580 q 221 572 207 572 z m 71 572 q 57 572 51 580 q 45 588 45 598 l 35 743 q 35 755 46 762 q 58 768 71 768 q 84 768 96 762 q 108 755 108 743 l 98 598 q 98 588 92 580 q 85 572 71 572 z"},"7":{"x_min":0,"x_max":470,"ha":470,"o":"m 131 -2 q 118 -2 106 3 q 94 8 86 17 q 79 26 79 38 q 79 46 84 55 l 372 598 l 372 655 l 109 655 l 109 550 q 109 537 96 528 q 83 520 66 520 q 50 520 38 528 q 25 537 25 550 l 25 701 q 25 712 36 722 q 48 731 63 731 l 418 731 q 430 731 443 722 q 456 712 456 701 l 456 608 q 456 599 452 587 q 448 575 442 565 l 157 12 q 150 -2 131 -2 z"},"S":{"x_min":0,"x_max":502,"ha":502,"o":"m 245 -8 q 181 -8 133 12 q 85 31 59 58 q 33 84 33 105 q 33 115 38 126 q 44 136 52 144 q 61 151 70 151 q 82 151 94 139 q 105 127 122 110 q 140 94 168 82 q 196 70 241 70 q 283 70 314 84 q 345 97 362 124 q 380 152 380 194 q 380 237 362 264 q 344 291 314 309 q 285 327 250 341 q 216 355 180 370 q 145 384 116 406 q 87 427 69 461 q 51 495 51 547 q 51 602 71 638 q 91 674 124 695 q 157 716 196 724 q 234 733 271 733 q 298 733 328 729 q 358 725 385 717 q 412 709 429 696 q 446 684 446 667 q 446 659 442 648 q 438 638 430 630 q 422 621 410 621 q 399 621 383 630 q 367 640 340 650 q 314 659 271 659 q 235 659 204 649 q 172 639 154 616 q 135 593 135 555 q 135 519 153 496 q 171 473 200 458 q 229 443 264 430 q 299 418 334 402 q 369 385 398 361 q 428 337 446 298 q 464 260 464 202 q 464 130 436 84 q 407 37 358 14 q 309 -8 245 -8 z"},"}":{"x_min":0,"x_max":323,"ha":323,"o":"m 63 -20 q 42 -20 30 -10 q 17 -1 17 17 q 17 25 20 33 q 22 41 28 47 q 34 53 46 53 q 61 53 82 57 q 103 61 124 71 q 144 81 157 98 q 170 116 170 142 q 170 153 168 181 q 165 209 161 242 q 157 274 154 300 q 152 327 152 336 q 152 355 164 368 q 177 381 187 384 q 177 386 164 400 q 152 414 152 433 q 152 441 154 462 q 157 483 161 509 q 165 535 168 558 q 170 580 170 591 q 170 622 152 645 q 134 668 105 682 q 76 695 46 695 q 32 695 24 706 q 17 718 17 731 q 17 744 27 756 q 37 768 62 768 q 99 768 134 754 q 169 741 196 718 q 223 694 238 664 q 254 634 254 601 q 254 590 252 566 q 249 543 245 517 q 241 491 238 470 q 236 448 236 441 q 236 428 245 424 q 254 420 266 418 q 278 416 287 410 q 296 403 296 385 q 296 367 287 360 q 278 354 266 352 q 254 350 245 346 q 236 342 236 329 q 236 322 238 304 q 239 286 242 262 q 246 237 248 212 q 251 186 252 166 q 254 145 254 135 q 254 89 227 54 q 200 19 156 0 q 113 -20 63 -20 z"},"Z":{"x_min":0,"x_max":493,"ha":493,"o":"m 49 0 q 35 0 28 8 q 20 15 20 27 q 20 41 28 56 l 351 655 l 63 655 q 49 655 42 666 q 34 678 34 693 q 34 707 41 719 q 48 731 63 731 l 431 731 q 445 731 452 724 q 460 717 460 706 q 460 691 450 674 l 128 76 l 444 76 q 459 76 466 64 q 474 52 474 38 q 474 24 466 12 q 459 0 444 0 z"},"x":{"x_min":0,"x_max":426,"ha":426,"o":"m 74 -8 q 65 -8 53 -2 q 41 5 32 14 q 23 24 23 33 q 23 42 29 50 l 157 240 l 33 422 q 31 425 29 430 q 27 434 27 438 q 27 448 36 458 q 45 467 57 474 q 69 480 80 480 q 85 480 92 478 q 98 475 102 468 l 213 296 l 325 468 q 328 474 334 477 q 341 480 347 480 q 357 480 370 474 q 382 468 390 458 q 399 448 399 438 q 399 431 393 422 l 268 240 l 398 50 q 400 47 402 42 q 403 38 403 33 q 403 25 394 15 q 386 5 374 -2 q 363 -8 351 -8 q 345 -8 339 -5 q 333 -2 329 4 l 213 181 l 98 4 q 94 -2 87 -5 q 80 -8 74 -8 z"},")":{"x_min":0,"x_max":310,"ha":310,"o":"m 60 -20 q 36 -20 27 -10 q 18 1 18 17 q 18 31 24 43 q 29 55 47 55 q 74 55 102 63 q 130 71 150 92 q 169 114 169 155 l 169 579 q 169 607 154 633 q 140 659 113 676 q 86 693 47 693 q 34 693 26 704 q 18 714 18 731 q 18 746 27 757 q 36 768 59 768 q 97 768 132 754 q 167 739 194 714 q 221 688 237 654 q 253 619 253 579 l 253 155 q 253 111 238 78 q 222 45 195 24 q 168 2 133 -9 q 98 -20 60 -20 z"},"&":{"x_min":0,"x_max":619,"ha":619,"o":"m 267 -10 q 194 -10 141 20 q 88 50 60 98 q 32 147 32 205 q 32 255 51 294 q 70 332 100 360 q 131 389 164 405 q 135 440 111 480 q 87 520 87 575 q 87 630 112 669 q 138 708 181 728 q 224 748 275 748 q 332 748 370 730 q 409 711 428 687 q 448 663 448 646 q 448 631 436 619 q 424 607 408 607 q 397 607 387 618 q 377 629 364 644 q 352 658 332 668 q 311 679 278 679 q 229 679 200 650 q 170 621 170 570 q 170 537 184 508 q 199 478 221 452 q 243 426 266 401 l 457 193 q 477 239 482 285 q 486 331 487 362 q 489 378 496 385 q 504 392 525 392 q 546 392 554 382 q 561 371 561 350 q 561 329 556 294 q 552 259 541 218 q 530 177 509 139 l 598 44 q 601 40 602 36 q 604 31 604 27 q 604 14 592 3 q 580 -8 566 -8 q 560 -8 555 -6 q 550 -3 544 3 l 468 83 q 435 43 386 16 q 336 -10 267 -10 z m 278 65 q 329 65 362 85 q 396 105 417 136 l 212 354 q 191 341 169 322 q 147 304 132 278 q 117 251 117 212 q 117 173 136 139 q 154 105 190 85 q 226 65 278 65 z"},"_":{"x_min":0,"x_max":329,"ha":329,"o":"m 5 -72 q -8 -72 -16 -62 q -24 -52 -24 -36 q -24 -21 -16 -10 q -8 0 5 0 l 325 0 q 336 0 346 -10 q 355 -21 355 -36 q 355 -52 346 -62 q 336 -72 325 -72 z"},"v":{"x_min":0,"x_max":436,"ha":436,"o":"m 218 -9 q 205 -9 194 -4 q 184 0 180 9 l 16 424 q 15 426 14 431 q 12 436 12 440 q 12 450 20 458 q 29 467 42 472 q 54 476 65 476 q 73 476 81 472 q 89 468 92 460 l 218 120 l 344 456 q 347 465 354 470 q 360 476 371 476 q 381 476 393 472 q 405 467 415 458 q 425 450 425 440 q 425 435 424 431 q 422 427 421 424 l 257 9 q 253 1 242 -4 q 231 -9 218 -9 z"},"O":{"x_min":0,"x_max":559,"ha":559,"o":"m 279 -6 q 218 -6 170 16 q 121 37 92 84 q 64 132 64 212 l 64 513 q 64 593 92 640 q 121 688 170 710 q 218 731 279 731 q 340 731 389 710 q 438 688 466 640 q 495 593 495 513 l 495 212 q 495 132 466 84 q 438 37 389 16 q 340 -6 279 -6 z m 279 70 q 341 70 376 104 q 411 139 411 212 l 411 513 q 411 586 376 620 q 341 655 279 655 q 217 655 182 620 q 148 586 148 513 l 148 212 q 148 139 182 104 q 217 70 279 70 z"},"(":{"x_min":0,"x_max":310,"ha":310,"o":"m 250 -20 q 212 -20 177 -9 q 142 2 115 24 q 88 45 72 78 q 57 111 57 155 l 57 579 q 57 619 73 654 q 89 688 116 714 q 143 739 178 754 q 213 768 251 768 q 274 768 283 757 q 292 746 292 731 q 292 714 284 704 q 276 693 263 693 q 225 693 198 676 q 170 659 156 633 q 141 607 141 579 l 141 155 q 141 114 160 92 q 180 71 208 63 q 237 55 263 55 q 281 55 286 43 q 292 31 292 17 q 292 1 284 -10 q 275 -20 250 -20 z"},"C":{"x_min":0,"x_max":532,"ha":532,"o":"m 278 -6 q 220 -6 171 16 q 122 37 93 85 q 64 133 64 212 l 64 513 q 64 592 94 640 q 123 688 172 710 q 221 731 279 731 q 347 731 395 708 q 443 685 469 646 q 495 606 495 557 q 495 529 484 520 q 474 511 453 511 q 433 511 422 519 q 412 527 411 540 q 410 555 406 574 q 401 594 388 612 q 374 631 348 643 q 323 655 281 655 q 217 655 182 620 q 148 586 148 513 l 148 212 q 148 139 183 104 q 218 70 284 70 q 326 70 350 82 q 375 94 387 112 q 399 130 404 150 q 409 171 411 189 q 412 204 423 211 q 434 218 453 218 q 474 218 484 208 q 495 199 495 171 q 495 122 468 82 q 442 41 394 18 q 345 -6 278 -6 z"},"W":{"x_min":0,"x_max":811,"ha":811,"o":"m 268 -6 q 251 -6 236 2 q 220 9 216 23 l 18 688 q 17 692 17 697 q 17 707 25 714 q 33 722 44 726 q 56 731 67 731 q 78 731 88 726 q 97 722 99 712 l 268 118 l 363 484 q 367 498 380 504 q 392 510 406 510 q 421 510 433 504 q 445 498 448 484 l 544 118 l 713 712 q 716 722 724 726 q 733 731 744 731 q 756 731 768 726 q 779 722 787 714 q 795 707 795 697 q 795 692 793 688 l 597 23 q 592 9 577 2 q 562 -6 544 -6 q 527 -6 512 2 q 496 9 493 23 l 406 353 l 320 23 q 316 9 301 2 q 286 -6 268 -6 z"},"A":{"x_min":0,"x_max":548,"ha":548,"o":"m 67 0 q 57 0 44 4 q 32 9 24 17 q 17 25 17 35 q 17 39 18 43 l 223 708 q 227 723 242 730 q 257 737 274 737 q 292 737 307 730 q 322 722 326 708 l 530 43 q 532 39 532 36 q 532 26 524 18 q 515 10 503 5 q 491 0 480 0 q 469 0 461 4 q 453 9 450 19 l 405 168 l 142 168 l 99 19 q 96 9 88 4 q 79 0 67 0 z m 162 237 l 386 237 l 274 613 z"},"f":{"x_min":0,"x_max":315,"ha":315,"o":"m 100 0 q 83 0 72 8 q 60 16 60 29 l 60 573 q 60 625 84 668 q 108 710 148 735 q 189 760 237 760 l 272 760 q 288 760 297 749 q 306 738 306 723 q 306 709 297 698 q 288 687 272 687 l 251 687 q 220 687 196 672 q 171 658 157 634 q 143 609 143 580 l 143 474 l 280 474 q 292 474 299 464 q 306 454 306 441 q 306 429 299 419 q 292 409 280 409 l 143 409 l 143 29 q 143 16 130 8 q 117 0 100 0 z"},"Q":{"x_min":0,"x_max":559,"ha":559,"o":"m 280 -109 q 268 -109 259 -102 q 250 -94 250 -79 l 250 -4 q 196 0 154 23 q 112 46 88 92 q 64 139 64 212 l 64 513 q 64 593 92 640 q 121 688 170 710 q 218 731 279 731 q 340 731 389 710 q 438 688 466 640 q 495 593 495 513 l 495 212 q 495 139 471 92 q 447 46 405 23 q 363 0 310 -4 l 310 -79 q 310 -94 300 -102 q 291 -109 280 -109 z m 250 74 l 250 142 q 250 157 259 164 q 268 171 280 171 q 291 171 300 164 q 310 157 310 142 l 310 75 q 357 82 384 116 q 411 149 411 212 l 411 513 q 411 586 376 620 q 341 655 279 655 q 217 655 182 620 q 148 586 148 513 l 148 212 q 148 149 174 115 q 201 81 250 74 z"},"w":{"x_min":0,"x_max":673,"ha":673,"o":"m 206 -9 q 194 -9 186 -4 q 177 0 172 12 l 17 424 q 15 429 14 434 q 12 438 12 440 q 12 451 20 459 q 29 467 41 472 q 53 476 64 476 q 73 476 80 472 q 88 468 91 460 l 211 124 l 306 427 q 310 438 318 442 q 326 447 337 447 q 348 447 356 442 q 365 438 368 427 l 461 121 l 583 460 q 588 476 609 476 q 620 476 632 472 q 644 467 652 459 q 661 451 661 440 q 661 437 660 432 q 658 427 657 424 l 501 9 q 497 -1 488 -5 q 479 -9 468 -9 q 455 -9 446 -4 q 438 0 434 9 l 337 303 l 242 12 q 238 2 228 -4 q 218 -9 206 -9 z"},"-":{"x_min":0,"x_max":403,"ha":403,"o":"m 71 205 q 59 205 50 215 q 42 225 42 240 q 42 256 50 266 q 59 276 71 276 l 331 276 q 343 276 352 266 q 361 256 361 240 q 361 225 352 215 q 343 205 331 205 z"},"E":{"x_min":0,"x_max":514,"ha":514,"o":"m 109 0 q 95 0 83 8 q 71 15 71 30 l 71 701 q 71 716 83 724 q 95 731 109 731 l 465 731 q 481 731 488 719 q 494 707 494 694 q 494 679 486 667 q 479 655 465 655 l 155 655 l 155 401 l 311 401 q 325 401 332 390 q 340 379 340 365 q 340 353 334 342 q 327 331 311 331 l 155 331 l 155 76 l 465 76 q 479 76 486 64 q 494 53 494 37 q 494 24 488 12 q 481 0 465 0 z"},"s":{"x_min":0,"x_max":395,"ha":395,"o":"m 195 -8 q 147 -8 110 4 q 73 17 52 34 q 31 51 31 68 q 31 76 35 84 q 39 93 46 100 q 52 106 60 106 q 72 106 86 94 q 100 83 124 71 q 148 59 193 59 q 246 59 267 78 q 288 98 288 122 q 288 153 270 170 q 252 186 224 196 q 196 205 165 214 q 134 223 106 236 q 78 250 60 274 q 43 299 43 340 q 43 373 59 405 q 75 437 111 458 q 147 480 207 480 q 242 480 274 472 q 307 465 328 452 q 348 440 348 426 q 348 420 344 410 q 340 400 333 392 q 326 384 315 384 q 307 384 292 392 q 278 399 258 406 q 237 413 208 413 q 175 413 155 402 q 135 390 126 374 q 117 359 117 343 q 117 318 134 304 q 152 290 180 282 q 209 273 240 264 q 271 256 299 240 q 327 225 345 198 q 363 171 363 126 q 363 65 319 28 q 275 -8 195 -8 z"},">":{"x_min":0,"x_max":408,"ha":408,"o":"m 84 65 q 71 65 58 76 q 46 88 46 104 q 46 121 58 129 l 283 277 l 58 426 q 46 433 46 450 q 46 468 58 479 q 71 490 84 490 q 92 490 97 486 l 364 311 q 372 305 377 296 q 382 286 382 277 q 382 268 378 258 q 373 249 364 244 l 97 69 q 92 65 84 65 z"},"l":{"x_min":0,"x_max":219,"ha":219,"o":"m 109 0 q 91 0 80 10 q 68 19 68 30 l 68 731 q 68 744 80 752 q 91 760 109 760 q 126 760 138 752 q 151 744 151 731 l 151 30 q 151 19 138 10 q 126 0 109 0 z"},"8":{"x_min":0,"x_max":511,"ha":511,"o":"m 256 -6 q 196 -6 147 14 q 98 35 69 80 q 40 126 40 200 l 40 212 q 40 289 72 334 q 103 380 152 399 q 112 415 87 454 q 62 492 62 555 q 62 621 88 660 q 113 698 157 714 q 201 731 256 731 q 312 731 356 714 q 400 698 426 660 q 451 621 451 555 q 451 492 426 454 q 401 415 360 399 q 411 380 441 334 q 471 289 471 212 l 471 200 q 471 126 442 80 q 414 35 366 14 q 317 -6 256 -6 z m 257 66 q 318 66 352 101 q 387 136 387 208 l 387 224 q 387 295 352 328 q 317 362 256 362 q 195 362 160 328 q 124 295 124 224 l 124 208 q 124 135 160 100 q 195 66 257 66 z m 256 434 q 309 434 339 460 q 369 487 369 547 q 369 607 339 633 q 309 659 256 659 q 203 659 173 633 q 143 607 143 547 q 143 487 173 460 q 203 434 256 434 z"},"\\":{"x_min":0,"x_max":357,"ha":357,"o":"m 300 0 q 291 0 283 5 q 275 10 272 20 l 26 712 q 24 717 24 723 q 24 736 34 745 q 44 754 58 754 q 67 754 74 750 q 81 746 84 737 l 332 39 q 333 37 333 35 q 333 33 333 30 q 333 18 324 9 q 314 0 300 0 z"},"e":{"x_min":0,"x_max":465,"ha":465,"o":"m 264 -8 q 199 -8 149 16 q 99 41 70 84 q 41 128 41 186 l 41 291 q 41 342 68 385 q 96 428 141 454 q 186 480 240 480 q 292 480 336 456 q 379 432 406 391 q 432 350 432 296 q 432 256 419 238 q 406 221 386 217 q 366 213 344 213 l 124 213 l 124 183 q 124 127 164 94 q 204 62 267 62 q 304 62 326 72 q 348 82 362 92 q 376 101 387 101 q 398 101 406 94 q 413 88 417 79 q 421 70 421 63 q 421 50 402 34 q 383 17 348 4 q 312 -8 264 -8 z m 124 269 l 309 269 q 336 269 344 276 q 353 282 353 301 q 353 331 338 356 q 324 382 298 398 q 272 414 239 414 q 208 414 182 400 q 156 385 140 360 q 124 335 124 305 z"},"b":{"x_min":0,"x_max":494,"ha":494,"o":"m 276 -8 q 230 -8 192 16 q 155 39 139 70 l 139 30 q 139 19 128 10 q 117 0 100 0 q 83 0 72 10 q 60 19 60 30 l 60 731 q 60 744 72 752 q 83 760 100 760 q 118 760 130 752 q 143 744 143 731 l 143 404 q 159 433 192 456 q 226 480 274 480 q 323 480 364 454 q 404 427 428 384 q 453 341 453 288 l 453 186 q 453 136 428 92 q 404 47 364 20 q 324 -8 276 -8 z m 256 67 q 287 67 313 84 q 339 101 354 129 q 370 157 370 186 l 370 288 q 370 317 354 344 q 339 371 313 388 q 287 405 255 405 q 228 405 202 390 q 176 376 160 350 q 143 325 143 288 l 143 159 q 143 146 158 124 q 173 102 199 84 q 225 67 256 67 z"},"%":{"x_min":0,"x_max":767,"ha":767,"o":"m 201 -30 q 187 -30 178 -21 q 169 -12 169 0 q 169 7 172 13 l 547 755 q 554 770 571 770 q 583 770 594 760 q 606 751 606 737 q 606 730 602 723 l 229 -14 q 225 -22 217 -26 q 209 -30 201 -30 z m 166 345 q 111 345 74 372 q 37 399 37 463 l 37 613 q 37 677 74 704 q 111 731 166 731 q 203 731 232 720 q 261 708 278 682 q 295 656 295 613 l 295 463 q 295 420 278 394 q 261 368 232 356 q 203 345 166 345 z m 166 398 q 198 398 216 414 q 235 430 235 463 l 235 613 q 235 646 216 662 q 198 678 166 678 q 134 678 116 662 q 98 646 98 613 l 98 463 q 98 430 116 414 q 134 398 166 398 z m 601 -3 q 546 -3 509 24 q 472 51 472 115 l 472 265 q 472 329 509 356 q 546 383 601 383 q 638 383 667 372 q 696 360 713 334 q 730 308 730 265 l 730 115 q 730 72 713 46 q 696 20 667 8 q 638 -3 601 -3 z m 601 50 q 633 50 652 66 q 670 82 670 115 l 670 265 q 670 298 652 314 q 633 330 601 330 q 569 330 551 314 q 533 298 533 265 l 533 115 q 533 82 551 66 q 569 50 601 50 z"},"m":{"x_min":0,"x_max":785,"ha":785,"o":"m 100 0 q 82 0 70 10 q 59 19 59 30 l 59 445 q 59 458 70 466 q 82 474 100 474 q 116 474 127 466 q 138 458 138 445 l 138 404 q 155 433 188 456 q 221 480 271 480 q 319 480 355 452 q 391 424 408 380 q 434 431 475 456 q 516 480 559 480 q 603 480 642 458 q 682 435 706 392 q 731 349 731 288 l 731 30 q 731 19 718 10 q 706 0 689 0 q 672 0 660 10 q 648 19 648 30 l 648 288 q 648 326 632 352 q 617 378 592 392 q 568 405 543 405 q 516 405 492 391 q 468 377 452 352 q 436 327 436 291 l 436 29 q 436 14 423 7 q 410 0 394 0 q 380 0 366 7 q 353 14 353 29 l 353 290 q 353 324 338 350 q 324 376 300 390 q 277 405 249 405 q 222 405 198 391 q 173 377 158 352 q 142 326 142 288 l 142 30 q 142 19 130 10 q 117 0 100 0 z"},"#":{"x_min":0,"x_max":615,"ha":615,"o":"m 159 33 q 145 33 132 42 q 118 50 118 67 l 146 244 l 55 244 q 42 244 35 252 q 28 261 28 275 q 28 289 34 298 q 41 308 52 308 l 158 308 l 182 457 l 91 457 q 77 457 70 466 q 63 475 63 489 q 63 503 70 512 q 77 521 88 521 l 195 521 l 223 694 q 225 703 235 708 q 245 713 256 713 q 273 713 284 704 q 296 696 296 678 l 270 521 l 392 521 l 420 694 q 422 703 432 708 q 442 713 454 713 q 470 713 482 704 q 493 696 493 678 l 467 521 l 559 521 q 570 521 579 512 q 588 504 588 489 q 588 476 580 466 q 572 457 563 457 l 456 457 l 431 308 l 524 308 q 534 308 544 299 q 553 290 553 275 q 553 262 545 253 q 537 244 527 244 l 420 244 l 389 55 q 387 46 376 40 q 366 33 355 33 q 346 33 336 37 q 327 41 321 48 q 315 56 315 67 l 343 244 l 222 244 l 192 56 q 190 45 180 39 q 169 33 159 33 z m 234 308 l 355 308 l 380 457 l 259 457 z"},",":{"x_min":0,"x_max":177,"ha":177,"o":"m 75 -89 q 65 -89 55 -82 q 45 -76 45 -65 q 45 -59 48 -54 l 68 -2 q 54 4 45 17 q 36 30 36 46 q 36 68 51 84 q 66 99 88 99 q 108 99 124 84 q 140 70 140 46 q 140 43 139 38 q 138 32 134 20 q 130 8 121 -14 q 112 -37 97 -75 q 94 -82 88 -86 q 81 -89 75 -89 z"},"n":{"x_min":0,"x_max":502,"ha":502,"o":"m 100 0 q 82 0 70 10 q 59 19 59 30 l 59 445 q 59 458 70 466 q 82 474 100 474 q 116 474 127 466 q 138 458 138 445 l 138 404 q 154 433 188 456 q 222 480 272 480 q 320 480 360 454 q 400 427 424 384 q 448 341 448 288 l 448 30 q 448 15 435 8 q 422 0 406 0 q 391 0 378 8 q 365 15 365 30 l 365 288 q 365 317 350 344 q 334 371 308 388 q 282 405 251 405 q 224 405 199 390 q 174 376 158 350 q 142 325 142 288 l 142 30 q 142 19 130 10 q 117 0 100 0 z"},"h":{"x_min":0,"x_max":503,"ha":503,"o":"m 101 0 q 83 0 72 10 q 60 19 60 30 l 60 731 q 60 744 72 752 q 83 760 101 760 q 118 760 130 752 q 143 744 143 731 l 143 404 q 159 433 192 456 q 224 480 273 480 q 321 480 361 454 q 401 427 425 384 q 449 341 449 288 l 449 30 q 449 15 436 8 q 423 0 407 0 q 392 0 379 8 q 366 15 366 30 l 366 288 q 366 317 350 344 q 334 371 308 388 q 283 405 252 405 q 225 405 200 390 q 175 376 159 350 q 143 325 143 288 l 143 30 q 143 19 130 10 q 118 0 101 0 z"},"z":{"x_min":0,"x_max":410,"ha":410,"o":"m 54 0 q 39 0 31 10 q 23 19 23 31 q 23 40 27 49 q 31 58 36 64 l 267 403 l 60 403 q 49 403 40 413 q 32 423 32 438 q 32 453 40 464 q 48 474 60 474 l 346 474 q 358 474 367 466 q 376 458 376 442 q 376 426 364 410 l 132 71 l 361 71 q 373 71 381 60 q 389 50 389 35 q 389 21 381 10 q 373 0 361 0 z"},"B":{"x_min":0,"x_max":545,"ha":545,"o":"m 109 0 q 92 0 82 8 q 71 17 71 29 l 71 701 q 71 716 83 724 q 95 731 109 731 l 281 731 q 336 731 382 718 q 429 704 456 667 q 484 630 484 560 q 484 497 461 455 q 438 413 399 396 q 430 384 453 364 q 476 343 489 310 q 502 278 502 226 l 502 208 q 502 131 476 86 q 450 40 405 20 q 360 0 304 0 z m 155 76 l 290 76 q 351 76 384 109 q 418 142 418 213 l 418 230 q 418 302 384 332 q 351 361 290 361 l 155 361 z m 155 431 l 280 431 q 342 431 371 458 q 400 486 400 548 q 400 589 384 612 q 369 636 342 646 q 314 655 277 655 l 155 655 z"},"K":{"x_min":0,"x_max":531,"ha":531,"o":"m 113 0 q 98 0 84 8 q 71 15 71 30 l 71 702 q 71 717 84 724 q 98 731 113 731 q 129 731 142 724 q 155 717 155 702 l 155 371 l 424 719 q 433 731 449 731 q 460 731 471 724 q 482 718 489 708 q 496 699 496 688 q 496 684 495 679 q 494 674 490 670 l 286 415 l 523 55 q 528 48 528 40 q 528 29 521 20 q 514 10 503 4 q 492 -2 479 -2 q 471 -2 463 2 q 455 6 449 15 l 230 344 l 155 251 l 155 30 q 155 15 142 8 q 129 0 113 0 z"},"R":{"x_min":0,"x_max":539,"ha":539,"o":"m 459 -2 q 447 -2 438 8 q 428 18 421 31 l 271 324 l 155 324 l 155 30 q 155 15 142 8 q 129 0 113 0 q 98 0 84 8 q 71 15 71 30 l 71 702 q 71 714 80 722 q 88 730 101 731 l 284 731 q 345 731 396 712 q 446 694 476 650 q 506 607 506 531 q 506 470 486 430 q 467 390 433 368 q 399 345 357 336 l 505 55 q 507 51 508 48 q 509 44 509 41 q 509 30 502 20 q 494 10 482 4 q 471 -2 459 -2 z m 155 394 l 284 394 q 346 394 384 424 q 422 454 422 525 q 422 596 384 626 q 346 655 284 655 l 155 655 z"},"T":{"x_min":0,"x_max":490,"ha":490,"o":"m 245 0 q 229 0 216 8 q 203 15 203 30 l 203 653 l 41 653 q 28 653 20 665 q 12 677 12 693 q 12 707 19 719 q 26 731 41 731 l 449 731 q 464 731 471 719 q 478 707 478 693 q 478 678 471 666 q 464 653 449 653 l 287 653 l 287 30 q 287 15 274 8 q 261 0 245 0 z"},"P":{"x_min":0,"x_max":535,"ha":535,"o":"m 113 0 q 98 0 84 8 q 71 15 71 30 l 71 702 q 71 714 80 722 q 90 730 105 731 l 294 731 q 354 731 402 710 q 450 688 478 641 q 506 594 506 515 l 506 506 q 506 428 478 380 q 449 332 400 310 q 351 289 290 289 l 155 289 l 155 30 q 155 15 142 8 q 129 0 113 0 z m 155 359 l 290 359 q 352 359 387 394 q 422 429 422 501 l 422 513 q 422 586 387 620 q 352 655 290 655 l 155 655 z"},"|":{"x_min":0,"x_max":212,"ha":212,"o":"m 106 -21 q 88 -21 76 -12 q 64 -3 64 8 l 64 739 q 64 752 76 760 q 88 768 106 768 q 123 768 136 760 q 148 752 148 739 l 148 8 q 148 -3 136 -12 q 123 -21 106 -21 z"},"t":{"x_min":0,"x_max":309,"ha":309,"o":"m 223 0 q 142 0 100 36 q 57 72 57 151 l 57 666 q 57 679 70 687 q 83 695 98 695 q 114 695 127 687 q 140 679 140 666 l 140 474 l 266 474 q 278 474 284 464 q 291 454 291 441 q 291 428 284 418 q 278 409 266 409 l 140 409 l 140 151 q 140 108 158 90 q 177 73 223 73 l 254 73 q 272 73 281 62 q 290 51 290 37 q 290 23 281 12 q 272 0 254 0 z"},"M":{"x_min":0,"x_max":677,"ha":677,"o":"m 113 0 q 98 0 84 8 q 71 15 71 30 l 71 690 q 71 713 84 722 q 98 731 113 731 q 129 731 140 725 q 152 719 162 708 q 171 696 180 678 l 338 377 l 496 678 q 506 696 516 708 q 525 719 536 725 q 548 731 563 731 q 580 731 592 722 q 605 713 605 690 l 605 30 q 605 15 592 8 q 579 0 563 0 q 547 0 534 8 q 521 15 521 30 l 521 555 l 369 271 q 362 259 354 254 q 346 248 337 248 q 330 248 322 253 q 313 258 306 271 l 155 559 l 155 30 q 155 15 142 8 q 129 0 113 0 z"},"g":{"x_min":0,"x_max":459,"ha":459,"o":"m 232 -229 q 173 -229 126 -212 q 79 -196 52 -166 q 24 -135 24 -94 q 24 -52 48 -26 q 73 1 105 15 q 83 23 68 38 q 54 54 54 82 q 54 110 68 126 q 82 143 104 156 q 77 178 62 210 q 47 243 47 282 l 47 315 q 47 364 69 401 q 91 438 132 459 q 172 480 226 480 q 261 480 290 470 q 320 459 342 441 q 358 474 376 490 q 393 506 410 506 q 428 506 437 496 q 446 486 446 475 q 446 467 441 461 q 436 455 429 452 q 418 449 404 440 q 389 431 376 410 q 391 391 398 366 q 406 342 406 315 l 406 282 q 406 235 383 197 q 360 159 319 138 q 278 116 225 116 q 184 116 152 131 q 142 125 134 118 q 126 110 126 97 q 126 76 148 67 q 171 58 206 54 q 241 50 280 45 q 319 40 354 28 q 389 15 412 -11 q 434 -37 434 -83 q 434 -132 407 -164 q 380 -197 334 -213 q 289 -229 232 -229 z m 230 -171 q 287 -171 320 -148 q 353 -124 353 -85 q 353 -57 336 -42 q 319 -26 292 -18 q 265 -11 236 -8 q 206 -6 182 -3 q 150 -13 126 -33 q 103 -53 103 -85 q 103 -124 138 -148 q 173 -171 230 -171 z m 227 173 q 273 173 299 204 q 325 235 325 282 l 325 315 q 325 361 299 392 q 273 423 226 423 q 179 423 154 392 q 128 361 128 315 l 128 283 q 128 236 154 204 q 180 173 227 173 z"},"j":{"x_min":0,"x_max":202,"ha":202,"o":"m 6 -229 q -18 -229 -28 -218 q -38 -206 -38 -193 q -38 -176 -28 -166 q -17 -156 -4 -156 q 25 -156 38 -141 q 52 -126 56 -100 q 59 -73 59 -40 l 59 445 q 59 458 71 466 q 83 474 100 474 q 118 474 130 466 q 142 458 142 445 l 142 -40 q 142 -95 128 -138 q 114 -181 84 -205 q 54 -229 6 -229 z m 100 604 q 79 604 64 618 q 48 633 48 652 q 48 671 64 685 q 79 699 100 699 q 122 699 136 685 q 151 671 151 652 q 151 633 136 618 q 122 604 100 604 z"},"i":{"x_min":0,"x_max":200,"ha":200,"o":"m 100 0 q 82 0 70 10 q 59 19 59 30 l 59 445 q 59 458 70 466 q 82 474 100 474 q 117 474 130 466 q 142 458 142 445 l 142 30 q 142 19 130 10 q 117 0 100 0 z m 100 604 q 78 604 63 618 q 48 633 48 652 q 48 671 63 685 q 78 699 100 699 q 121 699 136 685 q 151 671 151 652 q 151 633 136 618 q 121 604 100 604 z"},"y":{"x_min":0,"x_max":435,"ha":435,"o":"m 50 -229 q 34 -229 23 -222 q 12 -214 12 -192 q 12 -178 18 -167 q 23 -156 36 -156 q 58 -156 80 -144 q 102 -131 122 -106 q 143 -82 158 -49 q 173 -16 180 24 l 14 429 q 11 435 11 440 q 11 451 20 460 q 29 469 42 474 q 54 480 65 480 q 73 480 81 476 q 89 472 91 463 l 224 115 l 343 463 q 346 472 354 476 q 361 480 369 480 q 379 480 392 474 q 404 469 413 460 q 422 451 422 439 q 422 433 420 429 l 267 22 q 252 -19 235 -63 q 218 -107 194 -144 q 171 -182 136 -206 q 101 -229 50 -229 z"},"@":{"x_min":0,"x_max":725,"ha":725,"o":"m 332 -111 q 277 -111 226 -92 q 176 -72 136 -32 q 97 7 74 69 q 51 131 51 214 q 51 311 84 390 q 118 468 190 514 q 261 561 373 561 q 474 561 544 523 q 614 485 650 412 q 687 340 687 236 q 687 182 674 134 q 662 85 634 56 q 606 26 559 26 q 520 26 493 46 q 466 66 459 93 q 434 65 406 50 q 379 34 336 34 q 304 34 275 45 q 246 56 228 80 q 211 105 211 145 q 211 191 236 216 q 260 241 304 251 q 349 261 408 261 l 449 261 l 449 279 q 449 320 426 340 q 404 359 355 359 q 323 359 306 353 q 288 347 278 340 q 268 334 259 334 q 252 334 246 340 q 241 346 238 354 q 235 362 235 368 q 235 383 255 395 q 275 407 306 414 q 336 421 366 421 q 410 421 443 406 q 476 391 495 362 q 514 334 514 292 l 514 125 q 517 101 532 88 q 546 76 564 76 q 585 76 598 90 q 610 105 617 128 q 624 151 626 177 q 629 203 629 226 q 629 358 566 432 q 503 505 372 505 q 297 505 246 482 q 196 459 166 418 q 136 376 123 324 q 110 272 110 215 q 110 162 122 114 q 133 65 160 26 q 186 -12 231 -34 q 276 -57 341 -57 q 384 -57 411 -50 q 438 -42 454 -34 q 470 -27 480 -27 q 491 -27 498 -36 q 504 -46 504 -53 q 504 -65 488 -76 q 472 -86 446 -94 q 419 -102 389 -106 q 359 -111 332 -111 z m 348 85 q 379 85 402 98 q 425 111 438 130 q 451 148 451 167 l 451 216 l 415 216 q 376 216 346 210 q 315 205 298 190 q 281 175 281 145 q 281 114 300 100 q 319 85 348 85 z"},".":{"x_min":0,"x_max":176,"ha":176,"o":"m 89 -6 q 66 -6 51 10 q 36 26 36 46 q 36 68 51 84 q 66 99 89 99 q 109 99 124 84 q 140 68 140 46 q 140 26 124 10 q 109 -6 89 -6 z"},"p":{"x_min":0,"x_max":494,"ha":494,"o":"m 100 -229 q 83 -229 72 -220 q 60 -210 60 -199 l 60 445 q 60 458 72 466 q 83 474 100 474 q 117 474 128 466 q 139 458 139 445 l 139 404 q 156 433 190 456 q 224 480 273 480 q 323 480 364 454 q 405 427 429 384 q 453 341 453 288 l 453 186 q 453 136 428 92 q 404 47 364 20 q 324 -8 276 -8 q 231 -8 195 16 q 159 39 143 70 l 143 -199 q 143 -210 130 -220 q 118 -229 100 -229 z m 256 67 q 286 67 312 84 q 338 101 354 129 q 370 157 370 186 l 370 288 q 370 317 354 344 q 338 371 312 388 q 286 405 254 405 q 227 405 202 390 q 176 376 160 350 q 143 325 143 288 l 143 159 q 143 146 158 124 q 172 102 198 84 q 223 67 256 67 z"},"X":{"x_min":0,"x_max":504,"ha":504,"o":"m 72 -2 q 61 -2 49 4 q 37 9 28 18 q 20 28 20 39 q 20 47 25 57 l 198 366 l 29 673 q 22 685 22 695 q 22 707 30 716 q 38 724 50 728 q 61 733 74 733 q 87 733 96 724 q 105 714 110 701 l 252 435 l 394 701 q 400 714 409 724 q 418 733 431 733 q 443 733 455 728 q 467 724 474 716 q 482 707 482 695 q 482 685 475 673 l 306 366 l 479 57 q 484 47 484 39 q 484 28 476 18 q 468 9 456 4 q 444 -2 432 -2 q 421 -2 413 7 q 405 16 400 26 l 252 299 l 105 26 q 100 16 92 7 q 84 -2 72 -2 z"},"*":{"x_min":0,"x_max":446,"ha":446,"o":"m 128 366 q 121 366 112 370 q 103 373 96 380 q 90 388 90 397 q 90 408 98 417 l 174 520 l 52 556 q 42 559 37 568 q 32 576 32 586 q 32 599 42 610 q 51 620 65 620 q 66 620 68 620 q 71 620 74 619 l 196 577 l 191 702 q 191 716 201 724 q 211 731 223 731 q 236 731 246 724 q 255 716 255 702 l 251 575 l 373 619 q 377 620 382 620 q 396 620 404 608 q 413 597 413 584 q 413 575 408 567 q 403 559 393 556 l 272 523 l 351 416 q 356 409 356 399 q 356 384 344 375 q 333 366 320 366 q 315 366 308 368 q 302 370 297 378 l 223 487 l 149 377 q 145 370 140 368 q 134 366 128 366 z"},"Y":{"x_min":0,"x_max":541,"ha":541,"o":"m 270 0 q 255 0 242 8 q 228 15 228 30 l 228 283 q 228 289 226 293 l 19 679 q 17 684 16 688 q 15 693 15 696 q 15 706 23 714 q 31 722 42 726 q 54 731 65 731 q 76 731 82 726 q 89 720 95 709 l 270 366 l 446 709 q 452 720 459 726 q 466 731 476 731 q 487 731 498 726 q 510 722 518 714 q 526 706 526 696 q 526 693 525 688 q 524 684 522 679 l 315 293 q 312 289 312 283 l 312 30 q 312 15 299 8 q 286 0 270 0 z"},"c":{"x_min":0,"x_max":418,"ha":418,"o":"m 243 -8 q 174 -8 130 18 q 85 44 64 88 q 42 131 42 186 l 42 286 q 42 340 64 384 q 85 428 130 454 q 174 480 242 480 q 286 480 319 469 q 352 458 370 442 q 388 426 388 411 q 388 403 384 394 q 379 384 372 377 q 364 370 354 370 q 344 370 332 379 q 321 388 302 396 q 282 405 247 405 q 186 405 156 373 q 125 341 125 286 l 125 186 q 125 131 156 99 q 186 67 248 67 q 284 67 304 76 q 324 86 336 94 q 347 103 358 103 q 369 103 377 96 q 385 90 390 81 q 394 72 394 63 q 394 48 375 32 q 356 15 322 4 q 288 -8 243 -8 z"},"!":{"x_min":0,"x_max":207,"ha":207,"o":"m 104 175 q 91 175 81 182 q 71 189 71 202 q 71 280 68 365 q 65 450 62 536 q 59 621 59 698 q 59 719 72 730 q 85 741 104 741 q 122 741 136 730 q 149 719 149 698 q 149 621 146 536 q 143 450 140 365 q 136 280 136 202 q 136 189 125 182 q 114 175 104 175 z m 105 -6 q 82 -6 67 10 q 52 26 52 46 q 52 68 67 84 q 82 99 105 99 q 125 99 140 84 q 156 68 156 46 q 156 26 140 10 q 125 -6 105 -6 z"},"/":{"x_min":0,"x_max":477,"ha":477,"o":"m 52 -30 q 38 -30 29 -21 q 20 -12 20 0 q 20 7 23 13 l 398 755 q 405 770 423 770 q 435 770 446 760 q 457 751 457 737 q 457 730 454 723 l 80 -14 q 76 -22 68 -26 q 61 -30 52 -30 z"},"[":{"x_min":0,"x_max":313,"ha":313,"o":"m 102 -21 q 88 -21 76 -13 q 64 -5 64 8 l 64 739 q 64 752 76 760 q 88 768 102 768 l 266 768 q 281 768 288 756 q 295 745 295 731 q 295 716 288 704 q 280 693 266 693 l 148 693 l 148 54 l 266 54 q 280 54 288 43 q 295 32 295 16 q 295 2 288 -10 q 281 -21 266 -21 z"},"6":{"x_min":0,"x_max":527,"ha":527,"o":"m 271 -6 q 210 -6 161 16 q 112 37 84 85 q 55 133 55 212 l 55 513 q 55 592 84 640 q 113 688 162 710 q 212 731 274 731 q 326 731 366 716 q 406 701 432 676 q 459 651 472 620 q 486 589 486 557 q 486 536 476 528 q 466 520 446 520 q 429 520 416 527 q 402 534 402 553 q 402 585 384 608 q 367 630 338 642 q 308 655 272 655 q 209 655 174 620 q 139 586 139 513 l 139 373 q 164 406 202 420 q 240 435 285 435 q 340 435 386 416 q 431 398 458 354 q 486 310 486 233 l 486 212 q 486 133 457 85 q 428 37 380 16 q 331 -6 271 -6 z m 271 66 q 332 66 367 100 q 402 135 402 208 l 402 229 q 402 303 367 334 q 332 365 270 365 q 210 365 174 336 q 139 307 139 238 l 139 208 q 139 135 174 100 q 209 66 271 66 z"},"r":{"x_min":0,"x_max":342,"ha":342,"o":"m 99 0 q 82 0 70 10 q 59 19 59 30 l 59 445 q 59 458 70 466 q 82 474 99 474 q 116 474 127 466 q 138 458 138 445 l 138 398 q 149 419 168 438 q 187 456 212 468 q 238 480 269 480 l 303 480 q 316 480 326 469 q 335 458 335 442 q 335 427 326 416 q 316 405 303 405 l 269 405 q 237 405 208 387 q 179 369 160 336 q 142 304 142 258 l 142 30 q 142 19 130 10 q 117 0 99 0 z"},"2":{"x_min":0,"x_max":483,"ha":483,"o":"m 70 0 q 58 0 45 8 q 32 16 32 30 l 32 127 q 32 168 56 202 q 80 237 118 268 q 156 300 198 330 q 241 359 279 390 q 317 422 341 457 q 365 492 365 533 q 365 562 352 590 q 339 617 312 635 q 285 653 242 653 q 195 653 162 626 q 130 599 130 544 q 130 531 118 521 q 107 511 86 511 q 68 511 58 522 q 48 532 48 560 q 48 611 74 650 q 101 688 146 710 q 190 731 243 731 q 301 731 348 706 q 394 681 422 637 q 449 593 449 536 q 449 483 425 440 q 401 397 364 362 q 326 327 284 298 q 241 268 204 241 q 166 214 142 186 q 118 158 118 127 l 118 76 l 426 76 q 438 76 446 65 q 455 54 455 38 q 455 23 446 12 q 438 0 426 0 z"},"{":{"x_min":0,"x_max":323,"ha":323,"o":"m 260 -20 q 210 -20 166 0 q 123 19 96 54 q 69 89 69 135 q 69 145 70 166 q 72 186 75 212 q 78 237 81 262 q 84 286 86 304 q 87 322 87 329 q 87 342 78 346 q 69 350 57 352 q 45 354 36 360 q 27 367 27 385 q 27 403 36 410 q 45 416 57 418 q 69 420 78 424 q 87 428 87 441 q 87 448 84 470 q 82 491 78 517 q 74 543 72 566 q 69 590 69 601 q 69 634 84 664 q 100 694 127 718 q 154 741 189 754 q 224 768 261 768 q 286 768 296 756 q 306 744 306 731 q 306 718 298 706 q 291 695 277 695 q 247 695 218 682 q 189 668 171 645 q 153 622 153 591 q 153 580 156 558 q 158 535 162 509 q 166 483 168 462 q 171 441 171 433 q 171 414 158 400 q 145 386 136 384 q 146 381 158 368 q 171 355 171 336 q 171 327 168 300 q 166 274 162 242 q 158 209 156 181 q 153 153 153 142 q 153 116 166 98 q 179 81 200 71 q 220 61 241 57 q 262 53 277 53 q 289 53 295 47 q 301 41 304 33 q 306 25 306 17 q 306 -1 294 -10 q 282 -20 260 -20 z"},"9":{"x_min":0,"x_max":528,"ha":528,"o":"m 254 -6 q 201 -6 161 9 q 121 24 95 49 q 69 74 56 105 q 42 136 42 168 q 42 189 52 197 q 62 205 81 205 q 98 205 112 198 q 125 191 125 172 q 125 140 143 118 q 161 95 190 82 q 220 70 256 70 q 319 70 354 104 q 389 139 389 212 l 389 352 q 364 320 326 305 q 287 290 243 290 q 187 290 142 308 q 96 327 69 371 q 42 415 42 492 l 42 513 q 42 592 70 640 q 99 688 148 710 q 196 731 257 731 q 318 731 367 710 q 416 688 444 640 q 473 592 473 513 l 473 212 q 473 133 444 85 q 415 37 366 16 q 316 -6 254 -6 z m 257 360 q 318 360 354 390 q 389 419 389 487 l 389 517 q 389 590 354 624 q 319 659 257 659 q 195 659 160 624 q 126 590 126 517 l 126 496 q 126 422 160 391 q 195 360 257 360 z"}," ":{"x_min":0,"x_max":200,"ha":200,"o":""},"I":{"x_min":0,"x_max":227,"ha":227,"o":"m 113 0 q 98 0 84 8 q 71 15 71 30 l 71 702 q 71 717 84 724 q 98 731 113 731 q 129 731 142 724 q 155 717 155 702 l 155 30 q 155 15 142 8 q 129 0 113 0 z"},"H":{"x_min":0,"x_max":582,"ha":582,"o":"m 113 0 q 98 0 84 8 q 71 15 71 30 l 71 702 q 71 717 84 724 q 98 731 113 731 q 129 731 142 724 q 155 717 155 702 l 155 414 l 426 414 l 426 702 q 426 717 440 724 q 453 731 468 731 q 484 731 497 724 q 510 717 510 702 l 510 30 q 510 15 497 8 q 484 0 468 0 q 453 0 440 8 q 426 15 426 30 l 426 344 l 155 344 l 155 30 q 155 15 142 8 q 129 0 113 0 z"},"4":{"x_min":0,"x_max":460,"ha":460,"o":"m 328 0 q 312 0 299 8 q 286 15 286 30 l 286 168 l 36 168 q 21 168 13 177 q 5 186 5 201 q 5 206 6 211 q 7 216 10 220 l 256 707 q 263 720 274 726 q 284 731 294 731 q 303 731 312 727 q 321 723 328 716 q 336 708 336 698 q 336 692 332 684 l 112 248 l 286 248 l 286 416 q 286 431 299 438 q 312 445 328 445 q 344 445 357 438 q 370 431 370 416 l 370 248 l 422 248 q 437 248 444 236 q 452 223 452 208 q 452 193 444 180 q 435 168 422 168 l 370 168 l 370 30 q 370 15 357 8 q 344 0 328 0 z"},"~":{"x_min":0,"x_max":404,"ha":404,"o":"m 278 211 q 249 211 228 220 q 208 228 188 236 q 168 244 142 244 q 121 244 107 236 q 93 229 84 222 q 75 214 66 214 q 58 214 53 220 q 48 225 46 232 q 43 239 43 244 q 43 261 52 272 q 62 283 76 290 q 90 298 105 301 q 120 304 130 304 q 158 304 178 296 q 198 288 218 280 q 239 271 265 271 q 287 271 300 278 q 312 285 320 292 q 329 299 338 299 q 347 299 352 294 q 357 289 360 282 q 362 275 362 270 q 362 252 352 241 q 343 230 330 223 q 316 216 302 214 q 288 211 278 211 z"},"D":{"x_min":0,"x_max":566,"ha":566,"o":"m 109 0 q 92 0 82 8 q 71 17 71 29 l 71 702 q 71 714 82 722 q 92 731 109 731 l 286 731 q 347 731 396 710 q 445 688 474 640 q 502 593 502 513 l 502 218 q 502 138 474 90 q 445 43 396 22 q 347 0 286 0 z m 155 76 l 286 76 q 348 76 383 110 q 418 145 418 218 l 418 513 q 418 586 383 620 q 348 655 286 655 l 155 655 z"},"^":{"x_min":0,"x_max":273,"ha":273,"o":"m 23 588 q 14 588 7 597 q 0 606 0 617 q 0 625 4 632 q 8 639 15 643 l 119 699 q 128 704 136 704 q 145 704 153 699 l 257 644 q 266 640 270 632 q 273 624 273 616 q 273 605 266 596 q 260 588 250 588 q 248 588 246 589 q 243 590 240 591 l 136 647 l 32 591 q 30 590 28 589 q 25 588 23 588 z"},"0":{"x_min":0,"x_max":540,"ha":540,"o":"m 270 -6 q 209 -6 160 16 q 112 37 84 84 q 55 132 55 212 l 55 513 q 55 593 84 640 q 112 688 160 710 q 209 731 270 731 q 330 731 379 710 q 428 688 457 640 q 486 593 486 513 l 486 212 q 486 132 457 84 q 428 37 379 16 q 330 -6 270 -6 z m 270 70 q 331 70 366 104 q 402 139 402 212 l 402 513 q 402 586 367 620 q 332 655 270 655 q 208 655 174 620 q 139 586 139 513 l 139 212 q 139 139 174 104 q 208 70 270 70 z m 270 322 q 253 322 242 334 q 231 345 231 362 q 231 379 242 390 q 253 401 270 401 q 288 401 298 390 q 309 379 309 362 q 309 345 298 334 q 288 322 270 322 z"},"F":{"x_min":0,"x_max":499,"ha":499,"o":"m 113 0 q 98 0 84 7 q 71 14 71 29 l 71 701 q 71 716 83 724 q 95 731 109 731 l 462 731 q 477 731 484 719 q 491 707 491 694 q 491 679 484 667 q 476 655 462 655 l 155 655 l 155 401 l 312 401 q 326 401 334 390 q 341 379 341 365 q 341 353 334 342 q 327 331 312 331 l 155 331 l 155 29 q 155 14 142 7 q 129 0 113 0 z"},"`":{"x_min":0,"x_max":168,"ha":168,"o":""},"k":{"x_min":0,"x_max":466,"ha":466,"o":"m 100 0 q 83 0 72 10 q 60 19 60 30 l 60 731 q 60 744 72 752 q 83 760 100 760 q 118 760 130 752 q 143 744 143 731 l 143 263 l 371 469 q 380 476 389 476 q 399 476 408 470 q 418 465 424 456 q 431 447 431 437 q 431 432 429 426 q 427 421 422 417 l 283 294 l 449 53 q 454 46 454 38 q 454 28 447 18 q 440 8 430 2 q 419 -4 408 -4 q 394 -4 385 9 l 226 242 l 143 168 l 143 30 q 143 19 130 10 q 118 0 100 0 z"},"u":{"x_min":0,"x_max":504,"ha":504,"o":"m 253 -8 q 198 -8 153 19 q 108 46 81 90 q 54 134 54 184 l 54 444 q 54 455 66 464 q 79 474 96 474 q 113 474 125 464 q 137 455 137 444 l 137 184 q 137 155 152 128 q 168 101 194 84 q 220 67 252 67 q 284 67 310 84 q 336 101 351 128 q 366 155 366 184 l 366 445 q 366 457 379 466 q 392 474 408 474 q 427 474 438 466 q 449 457 449 445 l 449 184 q 449 133 422 90 q 396 46 351 19 q 306 -8 253 -8 z"},"]":{"x_min":0,"x_max":313,"ha":313,"o":"m 47 -21 q 32 -21 25 -10 q 18 2 18 16 q 18 32 26 43 q 34 54 47 54 l 165 54 l 165 693 l 47 693 q 34 693 26 704 q 18 716 18 731 q 18 745 25 756 q 32 768 47 768 l 211 768 q 226 768 238 760 q 249 752 249 739 l 249 8 q 249 -5 237 -13 q 225 -21 211 -21 z"},"U":{"x_min":0,"x_max":572,"ha":572,"o":"m 286 -6 q 224 -6 175 16 q 126 37 97 84 q 68 132 68 212 l 68 702 q 68 717 80 724 q 93 731 110 731 q 126 731 139 724 q 152 717 152 702 l 152 212 q 152 139 187 104 q 222 70 286 70 q 349 70 384 104 q 420 139 420 212 l 420 702 q 420 717 433 724 q 446 731 462 731 q 478 731 491 724 q 504 717 504 702 l 504 212 q 504 132 475 84 q 446 37 396 16 q 347 -6 286 -6 z"},"o":{"x_min":0,"x_max":477,"ha":477,"o":"m 238 -8 q 185 -8 140 20 q 95 47 68 91 q 41 135 41 186 l 41 288 q 41 339 68 382 q 94 426 139 453 q 184 480 238 480 q 291 480 336 454 q 381 427 408 384 q 436 341 436 288 l 436 186 q 436 136 408 92 q 381 47 336 20 q 291 -8 238 -8 z m 238 67 q 270 67 296 84 q 321 101 337 128 q 353 156 353 186 l 353 288 q 353 317 338 344 q 322 371 296 388 q 270 405 238 405 q 206 405 180 388 q 154 371 139 344 q 124 317 124 288 l 124 186 q 124 156 139 128 q 154 101 180 84 q 206 67 238 67 z"},"N":{"x_min":0,"x_max":582,"ha":582,"o":"m 113 0 q 98 0 84 8 q 71 15 71 30 l 71 702 q 71 718 84 724 q 98 731 113 731 q 129 731 140 725 q 151 719 160 708 q 169 696 178 678 l 426 191 l 426 702 q 426 717 440 724 q 453 731 468 731 q 484 731 497 724 q 510 717 510 702 l 510 30 q 510 15 497 8 q 484 0 468 0 q 452 0 438 11 q 425 22 416 38 l 155 541 l 155 30 q 155 15 142 8 q 129 0 113 0 z"},"+":{"x_min":0,"x_max":438,"ha":438,"o":"m 220 51 q 205 51 194 59 q 183 67 183 80 l 183 205 l 59 205 q 46 205 38 215 q 30 225 30 240 q 30 256 38 266 q 46 276 59 276 l 183 276 l 183 400 q 183 411 194 420 q 205 430 220 430 q 236 430 246 420 q 255 411 255 400 l 255 276 l 379 276 q 390 276 400 266 q 409 256 409 240 q 409 225 400 215 q 390 205 379 205 l 255 205 l 255 80 q 255 67 246 59 q 236 51 220 51 z"},"G":{"x_min":0,"x_max":548,"ha":548,"o":"m 279 -6 q 218 -6 170 16 q 121 37 92 85 q 64 133 64 212 l 64 513 q 64 592 92 640 q 121 688 170 710 q 218 731 277 731 q 343 731 392 708 q 440 686 468 646 q 495 606 495 552 q 495 528 484 520 q 473 511 453 511 q 436 511 424 518 q 412 524 411 540 q 407 575 393 600 q 379 626 351 640 q 323 655 279 655 q 217 655 182 620 q 148 586 148 513 l 148 212 q 148 139 182 104 q 217 70 279 70 q 341 70 376 104 q 411 139 411 212 l 411 314 l 292 314 q 278 314 270 325 q 263 336 263 349 q 263 362 270 373 q 278 384 292 384 l 466 384 q 480 384 488 375 q 495 366 495 353 l 495 212 q 495 133 466 85 q 438 37 389 16 q 340 -6 279 -6 z"},"q":{"x_min":0,"x_max":494,"ha":494,"o":"m 394 -229 q 376 -229 364 -220 q 351 -210 351 -199 l 351 70 q 336 39 300 16 q 263 -8 218 -8 q 171 -8 130 20 q 90 47 66 92 q 41 136 41 186 l 41 288 q 41 341 65 384 q 89 427 130 454 q 171 480 221 480 q 270 480 304 456 q 339 433 355 404 l 355 445 q 355 458 366 466 q 378 474 394 474 q 412 474 423 466 q 434 458 434 445 l 434 -199 q 434 -210 423 -220 q 412 -229 394 -229 z m 238 67 q 271 67 296 84 q 322 102 336 124 q 351 146 351 159 l 351 288 q 351 325 335 350 q 319 376 293 390 q 267 405 240 405 q 208 405 182 388 q 156 371 140 344 q 124 317 124 288 l 124 186 q 124 157 140 129 q 156 101 182 84 q 208 67 238 67 z"},"d":{"x_min":0,"x_max":494,"ha":494,"o":"m 218 -8 q 171 -8 130 20 q 90 47 66 92 q 41 136 41 186 l 41 288 q 41 341 66 384 q 90 427 130 454 q 171 480 220 480 q 268 480 302 456 q 335 433 351 404 l 351 731 q 351 744 364 752 q 376 760 394 760 q 412 760 423 752 q 434 744 434 731 l 434 30 q 434 19 423 10 q 412 0 394 0 q 378 0 366 10 q 355 19 355 30 l 355 70 q 340 39 302 16 q 264 -8 218 -8 z m 238 67 q 270 67 296 84 q 321 102 336 124 q 351 146 351 159 l 351 288 q 351 325 334 350 q 318 376 292 390 q 266 405 239 405 q 207 405 181 388 q 155 371 140 344 q 124 317 124 288 l 124 186 q 124 157 140 129 q 155 101 181 84 q 207 67 238 67 z"},"1":{"x_min":0,"x_max":249,"ha":249,"o":"m 141 0 q 125 0 112 8 q 99 15 99 30 l 99 606 l 62 551 q 57 545 52 542 q 46 540 41 540 q 28 540 20 551 q 11 562 11 575 q 11 584 16 594 q 22 605 28 610 l 121 719 q 125 725 131 728 q 137 732 146 732 q 160 732 172 724 q 183 717 183 702 l 183 30 q 183 15 170 8 q 157 0 141 0 z"},"5":{"x_min":0,"x_max":484,"ha":484,"o":"m 240 -6 q 172 -6 123 18 q 74 43 49 82 q 24 121 24 167 q 24 190 36 198 q 47 207 66 207 q 90 207 99 198 q 108 188 108 173 q 108 140 126 117 q 143 94 173 82 q 203 70 239 70 q 301 70 336 104 q 371 138 371 210 l 371 229 q 371 298 336 332 q 301 366 240 366 l 98 366 q 75 366 67 376 q 59 385 59 399 q 59 405 60 410 q 60 415 61 421 l 82 701 q 84 715 89 723 q 94 731 104 731 l 392 731 q 406 731 412 720 q 419 708 419 693 q 419 679 412 667 q 406 655 392 655 l 155 655 l 140 436 l 240 436 q 301 436 350 416 q 398 396 426 350 q 455 304 455 229 l 455 210 q 455 131 426 84 q 397 37 348 16 q 300 -6 240 -6 z"}}}
